<svg height="512pt" viewBox="-42 0 512 512" width="512pt" xmlns="http://www.w3.org/2000/svg"><path d="m393.335938 123.140625v376.742187c0 6.691407-5.425782 12.117188-12.121094 12.117188h-334.664063c-6.691406 0-12.117187-5.425781-12.117187-12.117188v-487.765624c0-6.691407 5.425781-12.117188 12.117187-12.117188h223.652344c2.652344 0 5.199219 1.054688 7.074219 2.929688l113.128906 113.140624c1.875 1.875 2.929688 4.417969 2.929688 7.070313zm0 0" fill="#fd8724"/><path d="m393.335938 123.140625v376.75c0 6.679687-5.421876 12.109375-12.121094 12.109375h-32.648438c6.6875 0 12.117188-5.429688 12.117188-12.109375v-380.890625l-.097656-.101562-86.140626-86.148438-32.75-32.75h28.507813c1.441406 0 2.851563.308594 4.140625.898438 1.082031.492187 2.070312 1.171874 2.929688 2.03125l113.132812 113.140624c.859375.851563 1.539062 1.851563 2.027344 2.929688.589844 1.289062.902344 2.699219.902344 4.140625zm0 0" fill="#fc5820"/><path d="m392.433594 119-31.847656-.101562-73.851563-.21875c-6.660156-.019532-12.058594-5.417969-12.078125-12.078126l-.210938-73.851562-.101562-31.851562c1.082031.492187 2.070312 1.171874 2.929688 2.03125l113.132812 113.140624c.859375.851563 1.539062 1.851563 2.027344 2.929688zm0 0" fill="#fdb659"/><path d="m415.648438 335.121094h-403.53125c-6.691407 0-12.117188-5.425782-12.117188-12.117188v-134.007812c0-6.691406 5.425781-12.117188 12.117188-12.117188h403.53125c6.695312 0 12.117187 5.425782 12.117187 12.117188v134.003906c0 6.695312-5.421875 12.121094-12.117187 12.121094zm0 0" fill="#fede93"/><path d="m427.769531 188.996094v134.007812c0 6.695313-5.429687 12.113282-12.125 12.113282h-29.875c6.695313 0 12.125-5.417969 12.125-12.113282v-134.007812c0-6.695313-5.429687-12.113282-12.125-12.113282h29.875c6.695313 0 12.125 5.417969 12.125 12.113282zm0 0" fill="#fdb659"/><path d="m239.636719 398.164062h-149.890625c-6.824219 0-12.359375-5.535156-12.359375-12.363281s5.535156-12.363281 12.359375-12.363281h149.890625c6.828125 0 12.363281 5.535156 12.363281 12.363281s-5.535156 12.363281-12.363281 12.363281zm0 0" fill="#e3f4ff"/><path d="m360.6875 250.980469h21.632812c4.265626 0 7.726563-3.460938 7.726563-7.726563 0-4.269531-3.460937-7.726562-7.726563-7.726562h-21.632812c-4.269531 0-7.726562 3.457031-7.726562 7.726562 0 4.265625 3.457031 7.726563 7.726562 7.726563zm0 0" fill="#fdb659"/><path d="m382.320312 261.019531h-21.632812c-4.269531 0-7.726562 3.460938-7.726562 7.726563 0 4.269531 3.457031 7.726562 7.726562 7.726562h21.632812c4.265626 0 7.726563-3.457031 7.726563-7.726562 0-4.265625-3.460937-7.726563-7.726563-7.726563zm0 0" fill="#fdb659"/><path d="m67.085938 235.527344h-21.636719c-4.265625 0-7.726563 3.457031-7.726563 7.726562 0 4.265625 3.460938 7.722656 7.726563 7.722656h21.636719c4.265624 0 7.722656-3.457031 7.722656-7.722656 0-4.269531-3.457032-7.726562-7.722656-7.726562zm0 0" fill="#fdb659"/><path d="m67.085938 261.019531h-21.636719c-4.265625 0-7.726563 3.460938-7.726563 7.726563 0 4.269531 3.460938 7.726562 7.726563 7.726562h21.636719c4.265624 0 7.722656-3.457031 7.722656-7.726562.003906-4.265625-3.457032-7.726563-7.722656-7.726563zm0 0" fill="#fdb659"/><g fill="#fc5820"><path d="m208.660156 205.738281c-1.191406-2.890625-4.011718-4.773437-7.136718-4.773437s-5.945313 1.882812-7.140626 4.773437l-39.144531 94.617188c-1.632812 3.941406.242188 8.460937 4.183594 10.09375 3.945313 1.628906 8.464844-.242188 10.09375-4.1875l11.796875-28.507813h40.421875l11.796875 28.507813c1.234375 2.976562 4.109375 4.773437 7.144531 4.773437.980469 0 1.984375-.1875 2.949219-.585937 3.941406-1.632813 5.816406-6.152344 4.1875-10.09375zm-20.957031 56.5625 13.820313-33.398437 13.816406 33.398437zm0 0"/><path d="m265.394531 240.03125c-4.265625 0-7.726562 3.460938-7.726562 7.726562v55.550782c0 4.265625 3.460937 7.722656 7.726562 7.722656s7.726563-3.457031 7.726563-7.722656v-55.550782c0-4.265624-3.460938-7.726562-7.726563-7.726562zm0 0"/><path d="m265.394531 215.953125c-4.265625 0-7.726562 3.457031-7.726562 7.726563v1.414062c0 4.269531 3.460937 7.726562 7.726562 7.726562s7.726563-3.460937 7.726563-7.726562v-1.414062c0-4.269532-3.460938-7.726563-7.726563-7.726563zm0 0"/><path d="m297.328125 381.164062h47.386719c4.269531 0 7.726562-3.457031 7.726562-7.722656 0-4.269531-3.457031-7.726562-7.726562-7.726562h-47.386719c-4.265625 0-7.726563 3.457031-7.726563 7.726562 0 4.265625 3.460938 7.722656 7.726563 7.722656zm0 0"/><path d="m344.714844 390.4375h-23.691406c-4.269532 0-7.726563 3.460938-7.726563 7.726562 0 4.269532 3.457031 7.726563 7.726563 7.726563h23.691406c4.269531 0 7.726562-3.457031 7.726562-7.726563 0-4.265624-3.457031-7.726562-7.726562-7.726562zm0 0"/><path d="m344.714844 468.0625h-259.632813c-4.265625 0-7.726562 3.460938-7.726562 7.726562 0 4.269532 3.460937 7.726563 7.726562 7.726563h259.636719c4.265625 0 7.722656-3.457031 7.722656-7.726563 0-4.265624-3.457031-7.726562-7.726562-7.726562zm0 0"/><path d="m94.082031 103.714844 5.226563-5.226563c1.371094 5.714844 4.296875 11.03125 8.582031 15.316407l8.011719 8.015624c-1.925782 2.277344-2.980469 5.125-2.980469 8.144532 0 3.375 1.3125 6.546875 3.699219 8.933594l9.417968 9.417968s0 0 .003907.003906c2.460937 2.460938 5.695312 3.691407 8.933593 3.691407 3.234376 0 6.46875-1.230469 8.933594-3.695313l9.417969-9.417968c2.386719-2.386719 3.703125-5.558594 3.703125-8.933594s-1.316406-6.550782-3.703125-8.9375l-9.417969-9.417969c-2.386718-2.386719-5.558594-3.703125-8.933594-3.703125-3.015624 0-5.867187 1.058594-8.144531 2.984375l-8.015625-8.011719c-2.078125-2.078125-3.535156-4.621094-4.308594-7.367187 2.9375-.265625 5.667969-1.53125 7.78125-3.644531l9.417969-9.417969c2.117188-2.113281 3.386719-4.851563 3.644531-7.796875 2.738282.769531 5.273438 2.234375 7.367188 4.328125l8.011719 8.011719c-1.925781 2.277343-2.984375 5.125-2.984375 8.144531 0 3.375 1.316406 6.546875 3.703125 8.933593l9.417969 9.417969c2.386718 2.386719 5.558593 3.703125 8.933593 3.703125s6.550781-1.316406 8.9375-3.703125l9.417969-9.417969c2.386719-2.386718 3.699219-5.558593 3.699219-8.933593 0-3.378907-1.316407-6.550781-3.699219-8.9375l-9.417969-9.417969c-2.386719-2.386719-5.5625-3.703125-8.9375-3.703125-3.015625 0-5.867187 1.058594-8.144531 2.984375l-8.011719-8.011719c-4.3125-4.3125-9.613281-7.222656-15.308593-8.589843l5.214843-5.214844c2.210938.867187 4.585938 1.332031 7.035157 1.332031 5.152343 0 10-2.003906 13.640624-5.648437 3.644532-3.644532 5.652344-8.492188 5.652344-13.644532 0-5.15625-2.007812-10-5.652344-13.644531-3.640624-3.644531-8.488281-5.652344-13.640624-5.652344-5.15625 0-10 2.007813-13.644532 5.652344-3.644531 3.644531-5.652344 8.488281-5.652344 13.644531 0 2.449219.46875 4.820313 1.332032 7.035156l-11.121094 11.121094c-2.277344-1.925781-5.128906-2.980468-8.144531-2.980468-3.375 0-6.550781 1.3125-8.933594 3.699218l-9.421875 9.417969c-2.386719 2.386719-3.699219 5.5625-3.699219 8.9375 0 3.015625 1.054688 5.867187 2.980469 8.144531l-11.121094 11.121094c-2.214844-.867188-4.585937-1.332031-7.035156-1.332031-5.15625 0-10 2.007812-13.644531 5.652343-3.644531 3.644532-5.652344 8.488282-5.652344 13.644532 0 5.152344 2.007813 10 5.652344 13.644531s8.488281 5.648437 13.644531 5.648437c5.152344 0 10-2.003906 13.644531-5.648437 5.578125-5.582031 7.011719-13.753906 4.3125-20.675781zm81.152344-8.578125-5.433594 5.433593-5.433593-5.433593 5.433593-5.4375zm-34.824219 34.828125-5.433594 5.433594-5.4375-5.433594 5.4375-5.4375zm7.457032-96.394532c.980468-.980468 2.121093-1.128906 2.71875-1.128906.59375 0 1.734374.148438 2.714843 1.128906 1.5 1.496094 1.5 3.933594 0 5.433594-.980469.980469-2.121093 1.125-2.71875 1.125-.59375 0-1.738281-.144531-2.714843-1.125-.980469-.980468-1.125-2.125-1.125-2.71875s.144531-1.738281 1.125-2.714844zm-34.511719 34.507813 5.433593 5.4375-5.433593 5.433594-5.4375-5.433594zm-34.511719 45.386719c-.980469.976562-2.125 1.125-2.71875 1.125s-1.738281-.148438-2.71875-1.125c-1.496094-1.5-1.496094-3.9375 0-5.4375.980469-.980469 2.125-1.125 2.71875-1.125s1.738281.144531 2.71875 1.125c1.496094 1.5 1.496094 3.9375 0 5.4375zm0 0"/></g></svg>