<?xml version="1.0" encoding="utf-8"?>
<!-- Generator: Adobe Illustrator 16.0.0, SVG Export Plug-In . SVG Version: 6.00 Build 0)  -->
<svg version="1.2" baseProfile="tiny" xmlns="http://www.w3.org/2000/svg" xmlns:xlink="http://www.w3.org/1999/xlink" x="0px"
	 y="0px" width="538px" height="538.061px" viewBox="0 0 538 538.061" xml:space="preserve">
<g id="cadre" display="none">
	<path display="inline" d="M534,4.061v530H4v-530H534 M534,0.061H4c-2.209,0-4,1.791-4,4v530c0,2.209,1.791,4,4,4h530
		c2.209,0,4-1.791,4-4v-530C538,1.852,536.209,0.061,534,0.061L534,0.061z"/>
</g>
<g id="Layer_3_copy" display="none">
	<text transform="matrix(1 0 0 1 139.582 454.6279)" display="inline" font-family="'Montserrat-Regular'" font-size="45">T</text>
	<text transform="matrix(1 0 0 1 165.4121 454.6279)" display="inline" font-family="'Montserrat-Regular'" font-size="45">h</text>
	<text transform="matrix(1 0 0 1 195.9668 454.6279)" display="inline" font-family="'Montserrat-Regular'" font-size="45">e</text>
	<text transform="matrix(1 0 0 1 223.1465 454.6279)" display="inline" font-family="'Montserrat-Regular'" font-size="45"> </text>
	<text transform="matrix(1 0 0 1 234.9355 454.6279)" display="inline" font-family="'Montserrat-Regular'" font-size="45">M</text>
	<text transform="matrix(1 0 0 1 277.9102 454.6279)" display="inline" font-family="'Montserrat-Regular'" font-size="45">a</text>
	<text transform="matrix(1 0 0 1 304.46 454.6279)" display="inline" font-family="'Montserrat-Regular'" font-size="45">s</text>
	<text transform="matrix(1 0 0 1 326.4648 454.6279)" display="inline" font-family="'Montserrat-Regular'" font-size="45">t</text>
	<text transform="matrix(1 0 0 1 343.8799 454.6279)" display="inline" font-family="'Montserrat-Regular'" font-size="45">e</text>
	<text transform="matrix(1 0 0 1 371.0596 454.6279)" display="inline" font-family="'Montserrat-Regular'" font-size="45">r</text>
	<text transform="matrix(1 0 0 1 389.7783 454.6279)" display="inline" font-family="'Montserrat-Regular'" font-size="45">y</text>
</g>
<g id="Layer_3_1_" display="none">
	<text transform="matrix(1 0 0 1 12.5566 415.6279)" display="inline" font-family="'Montserrat-Black'" font-size="90">O</text>
	<text transform="matrix(1 0 0 1 87.9766 415.6279)" display="inline" font-family="'Montserrat-Black'" font-size="90">T</text>
	<text transform="matrix(1 0 0 1 146.8359 415.6279)" display="inline" font-family="'Montserrat-Black'" font-size="90">H</text>
	<text transform="matrix(1 0 0 1 219.1953 415.6279)" display="inline" font-family="'Montserrat-Black'" font-size="90">W</text>
	<text transform="matrix(1 0 0 1 326.3848 415.6279)" display="inline" font-family="'Montserrat-Black'" font-size="90">S</text>
	<text transform="matrix(1 0 0 1 385.5146 415.6279)" display="inline" font-family="'Montserrat-Black'" font-size="90">A</text>
	<text transform="matrix(1 0 0 1 454.4551 415.6279)" display="inline" font-family="'Montserrat-Black'" font-size="90">V</text>
</g>
<g id="Layer_2" display="none">
	<g id="Layer_3_2_" display="inline">
		<g id="Layer_7_1_">
			<circle fill="#FFFFFF" cx="275.875" cy="224.852" r="141.419"/>
		</g>
		<g>
			
				<path fill="none" stroke="#000000" stroke-width="10" stroke-linecap="round" stroke-linejoin="round" stroke-miterlimit="10" d="
				M143.331,225.135c0-72.802,59.02-131.822,131.821-131.822c72.803,0,131.82,59.02,131.82,131.822
				c0,72.803-59.02,131.82-131.82,131.82C202.35,356.955,143.331,297.938,143.331,225.135z M159.567,161.95
				c0,0-23.118,109.667,53.948,179.667c0,0,29.005-45.25,61.636-44.875s61.89,44.875,61.89,44.875s72.074-60.666,53.93-179.482
				 M342.783,111.967c-137,7.316-130.025,85.192-130.005,89.192c101.667-5.39,131.673,65.126,131.673,65.126
				c-67.669,19.666-86.509,34.205-86.509,34.205"/>
		</g>
	</g>
</g>
<g id="cadre_copy">
	
		<polyline fill="none" stroke="#000000" stroke-width="4" stroke-linecap="round" stroke-linejoin="round" stroke-miterlimit="10" points="
		534,421.061 534,534.061 4,534.061 4,4.061 534,4.061 534,52.061 	"/>
</g>
<g id="Layer_9">
	<g>
		<path d="M536,98.978l-9.922,3.234l9.922,3.102v4.004l-9.834,3.256l9.834,3.103v4.488l-15.4-4.994v-4.664l9.372-3.08l-9.372-2.948
			v-4.664l15.4-4.994V98.978z"/>
		<path d="M536,76.93l-9.922,3.234L536,83.266v4.004l-9.834,3.256L536,93.628v4.488l-15.4-4.994v-4.664l9.372-3.08L520.6,82.43
			v-4.664l15.4-4.994V76.93z"/>
		<path d="M535.992,54.882l-9.922,3.234l9.922,3.102v4.004l-9.834,3.256l9.834,3.103v4.488l-15.4-4.994V66.41l9.372-3.08
			l-9.372-2.948v-4.664l15.4-4.994V54.882z"/>
	</g>
</g>
<g id="Layer_10">
	
		<line fill="none" stroke="#000000" stroke-width="4" stroke-linecap="round" stroke-miterlimit="10" x1="534" y1="118.061" x2="534" y2="346.061"/>
</g>
<g id="Layer_3_copy_8">
	<g>
		<path d="M152.832,426.008h-11.069v-2.88h25.47v2.88h-11.07v28.62h-3.33V426.008z"/>
		<path d="M191.015,433.365c1.755,1.726,2.632,4.238,2.632,7.538v13.725h-3.194v-13.41c0-2.459-0.615-4.335-1.845-5.625
			c-1.23-1.289-2.986-1.935-5.266-1.935c-2.55,0-4.567,0.758-6.053,2.272c-1.484,1.515-2.227,3.607-2.227,6.277v12.42h-3.195v-33.39
			h3.195v13.859c0.869-1.379,2.07-2.444,3.6-3.194s3.285-1.125,5.266-1.125C186.896,430.778,189.26,431.641,191.015,433.365z"/>
		<path d="M223.031,443.783h-19.8c0.18,2.46,1.125,4.447,2.835,5.962c1.71,1.516,3.87,2.272,6.48,2.272
			c1.469,0,2.818-0.262,4.049-0.787c1.23-0.524,2.295-1.297,3.195-2.317l1.801,2.07c-1.051,1.26-2.363,2.22-3.938,2.88
			c-1.576,0.66-3.309,0.989-5.197,0.989c-2.431,0-4.584-0.518-6.458-1.552c-1.876-1.035-3.338-2.468-4.388-4.298
			c-1.051-1.829-1.575-3.899-1.575-6.21c0-2.31,0.503-4.38,1.508-6.21s2.385-3.255,4.14-4.275c1.756-1.02,3.728-1.529,5.918-1.529
			c2.189,0,4.154,0.51,5.895,1.529c1.74,1.021,3.105,2.438,4.096,4.253c0.99,1.815,1.484,3.893,1.484,6.232L223.031,443.783z
			 M205.863,435.705c-1.545,1.456-2.422,3.353-2.632,5.692h16.784c-0.209-2.34-1.087-4.236-2.632-5.692
			c-1.546-1.454-3.473-2.183-5.782-2.183C209.321,433.522,207.408,434.251,205.863,435.705z"/>
		<path d="M274.78,423.128v31.5h-3.194v-25.2l-12.375,21.195h-1.575l-12.375-21.061v25.065h-3.195v-31.5h2.745l13.68,23.355
			l13.545-23.355H274.78z"/>
		<path d="M299.755,433.096c1.649,1.545,2.476,3.832,2.476,6.862v14.67h-3.061v-3.69c-0.72,1.23-1.777,2.19-3.172,2.881
			c-1.396,0.69-3.054,1.034-4.973,1.034c-2.641,0-4.74-0.63-6.3-1.89c-1.561-1.26-2.341-2.925-2.341-4.995
			c0-2.01,0.728-3.629,2.183-4.859s3.772-1.846,6.953-1.846h7.515v-1.439c0-2.04-0.57-3.593-1.71-4.658
			c-1.141-1.064-2.806-1.597-4.995-1.597c-1.5,0-2.94,0.247-4.32,0.742s-2.564,1.178-3.555,2.048l-1.439-2.386
			c1.199-1.02,2.639-1.807,4.319-2.362c1.68-0.555,3.45-0.832,5.311-0.832C295.734,430.778,298.104,431.551,299.755,433.096z
			 M296.155,451.096c1.289-0.825,2.25-2.018,2.88-3.578v-3.87h-7.425c-4.05,0-6.075,1.411-6.075,4.23
			c0,1.38,0.524,2.468,1.575,3.263c1.05,0.795,2.52,1.192,4.41,1.192C293.32,452.333,294.865,451.921,296.155,451.096z"/>
		<path d="M311.747,454.021c-1.755-0.555-3.127-1.252-4.117-2.093l1.44-2.52c0.989,0.78,2.234,1.417,3.734,1.912
			s3.061,0.742,4.681,0.742c2.159,0,3.757-0.337,4.792-1.012c1.035-0.676,1.553-1.627,1.553-2.857c0-0.87-0.285-1.553-0.855-2.048
			s-1.29-0.87-2.159-1.125c-0.871-0.255-2.025-0.502-3.466-0.742c-1.92-0.36-3.465-0.728-4.635-1.103s-2.168-1.013-2.992-1.913
			c-0.825-0.899-1.237-2.145-1.237-3.734c0-1.98,0.824-3.601,2.475-4.86c1.649-1.26,3.944-1.89,6.885-1.89
			c1.53,0,3.061,0.202,4.59,0.607c1.53,0.404,2.79,0.938,3.78,1.598l-1.395,2.564c-1.951-1.35-4.275-2.025-6.976-2.025
			c-2.04,0-3.577,0.36-4.612,1.08c-1.035,0.721-1.553,1.665-1.553,2.835c0,0.9,0.293,1.62,0.878,2.16s1.312,0.938,2.183,1.192
			c0.869,0.256,2.069,0.518,3.6,0.788c1.89,0.359,3.404,0.72,4.545,1.08c1.14,0.359,2.115,0.975,2.925,1.845
			c0.811,0.87,1.216,2.07,1.216,3.6c0,2.07-0.863,3.713-2.588,4.928c-1.726,1.215-4.117,1.822-7.178,1.822
			C315.34,454.853,313.503,454.576,311.747,454.021z"/>
		<path d="M345.385,453.188c-0.601,0.54-1.343,0.953-2.228,1.238c-0.885,0.284-1.808,0.427-2.768,0.427c-2.221,0-3.931-0.6-5.13-1.8
			c-1.2-1.199-1.8-2.895-1.8-5.085v-14.31h-4.23v-2.7h4.23v-5.175h3.195v5.175h7.199v2.7h-7.199v14.13
			c0,1.41,0.352,2.482,1.057,3.218s1.718,1.103,3.038,1.103c0.659,0,1.297-0.105,1.912-0.315s1.147-0.51,1.598-0.9L345.385,453.188z
			"/>
		<path d="M370.945,443.783h-19.801c0.181,2.46,1.125,4.447,2.835,5.962c1.71,1.516,3.87,2.272,6.48,2.272
			c1.47,0,2.819-0.262,4.05-0.787c1.229-0.524,2.295-1.297,3.195-2.317l1.8,2.07c-1.051,1.26-2.362,2.22-3.938,2.88
			s-3.308,0.989-5.197,0.989c-2.431,0-4.583-0.518-6.458-1.552c-1.875-1.035-3.338-2.468-4.388-4.298
			c-1.05-1.829-1.574-3.899-1.574-6.21c0-2.31,0.502-4.38,1.507-6.21s2.386-3.255,4.141-4.275c1.755-1.02,3.727-1.529,5.917-1.529
			c2.189,0,4.155,0.51,5.896,1.529c1.739,1.021,3.104,2.438,4.095,4.253c0.99,1.815,1.485,3.893,1.485,6.232L370.945,443.783z
			 M353.777,435.705c-1.546,1.456-2.423,3.353-2.633,5.692h16.785c-0.21-2.34-1.088-4.236-2.632-5.692
			c-1.546-1.454-3.474-2.183-5.783-2.183C357.234,433.522,355.322,434.251,353.777,435.705z"/>
		<path d="M383.926,431.993c1.485-0.811,3.322-1.215,5.513-1.215v3.104l-0.765-0.045c-2.49,0-4.44,0.765-5.851,2.295
			s-2.114,3.676-2.114,6.436v12.06h-3.195v-23.67h3.06v4.635C381.323,434.003,382.441,432.803,383.926,431.993z"/>
		<path d="M416.123,430.958l-11.835,26.505c-0.96,2.22-2.069,3.795-3.33,4.725c-1.26,0.93-2.775,1.396-4.545,1.396
			c-1.141,0-2.205-0.18-3.194-0.54c-0.99-0.36-1.846-0.9-2.565-1.62l1.485-2.385c1.199,1.199,2.64,1.8,4.319,1.8
			c1.08,0,2.003-0.3,2.768-0.9c0.766-0.6,1.478-1.619,2.138-3.06l1.035-2.295l-10.575-23.625h3.33l8.91,20.115l8.91-20.115H416.123z
			"/>
	</g>
</g>
<g id="Layer_3_copy_7">
	<g>
		<path d="M34.447,412.838c-5.4-2.819-9.63-6.734-12.69-11.745c-3.06-5.009-4.59-10.665-4.59-16.965s1.53-11.954,4.59-16.965
			c3.06-5.009,7.29-8.924,12.69-11.745c5.4-2.819,11.489-4.23,18.27-4.23c6.779,0,12.87,1.411,18.27,4.23
			c5.4,2.821,9.63,6.736,12.69,11.745c3.06,5.011,4.59,10.665,4.59,16.965s-1.53,11.956-4.59,16.965
			c-3.06,5.011-7.29,8.926-12.69,11.745c-5.4,2.819-11.491,4.23-18.27,4.23C45.936,417.068,39.847,415.657,34.447,412.838z
			 M59.872,397.943c2.129-1.29,3.825-3.119,5.085-5.49c1.26-2.37,1.89-5.145,1.89-8.325c0-3.18-0.63-5.954-1.89-8.325
			c-1.26-2.369-2.956-4.199-5.085-5.49c-2.13-1.289-4.516-1.935-7.155-1.935c-2.641,0-5.026,0.646-7.155,1.935
			c-2.13,1.291-3.825,3.121-5.085,5.49c-1.26,2.371-1.89,5.146-1.89,8.325c0,3.181,0.63,5.955,1.89,8.325
			c1.26,2.371,2.955,4.2,5.085,5.49c2.129,1.29,4.514,1.935,7.155,1.935C55.356,399.878,57.741,399.233,59.872,397.943z"/>
		<path d="M108.787,369.098h-18.45v-16.47h58.14v16.47h-18.45v46.53h-21.24V369.098z"/>
		<path d="M216.065,352.628v63h-21.239v-23.22h-19.621v23.22h-21.24v-63h21.24v22.32h19.621v-22.32H216.065z"/>
		<path d="M329.554,350.459l-20.879,65.169h-22.771l-10.17-33.66l-10.71,33.66h-22.771l-20.667-64.679l22.377,1.679l10.98,35.82
			l11.61-35.82h19.529l10.98,36.27l11.61-36.27L329.554,350.459z"/>
		<path d="M341.749,415.313c-4.95-1.17-9.016-2.744-12.195-4.725l6.84-15.479c3,1.74,6.359,3.136,10.08,4.185
			c3.72,1.051,7.29,1.575,10.71,1.575c2.939,0,5.04-0.284,6.3-0.855c1.261-0.569,1.891-1.424,1.891-2.564
			c0-1.319-0.826-2.31-2.476-2.971c-1.65-0.659-4.364-1.379-8.145-2.159c-4.86-1.02-8.91-2.115-12.15-3.285
			c-3.239-1.17-6.061-3.09-8.46-5.761c-2.4-2.669-3.6-6.284-3.6-10.845c0-3.96,1.109-7.56,3.33-10.8
			c2.219-3.24,5.535-5.789,9.944-7.65c4.41-1.858,9.766-2.79,16.065-2.79c4.32,0,8.564,0.466,12.735,1.396
			c4.169,0.931,7.844,2.295,11.024,4.095l-6.39,15.391c-6.181-3.119-12.03-4.681-17.55-4.681c-5.461,0-8.19,1.32-8.19,3.96
			c0,1.261,0.811,2.205,2.43,2.835c1.62,0.63,4.289,1.306,8.011,2.025c4.799,0.9,8.85,1.935,12.149,3.104
			c3.3,1.171,6.165,3.076,8.596,5.716c2.43,2.641,3.645,6.24,3.645,10.8c0,3.96-1.111,7.546-3.33,10.755
			c-2.221,3.21-5.535,5.76-9.945,7.65c-4.409,1.89-9.765,2.835-16.064,2.835C351.784,417.068,346.699,416.483,341.749,415.313z"/>
		<path d="M435.573,404.647h-23.939l-4.23,10.98h-21.6l27.54-63h20.88l27.54,63h-21.96L435.573,404.647z M429.724,389.348
			l-6.12-15.84l-6.12,15.84H429.724z"/>
		<path d="M528.904,352.628l-26.641,63h-20.88l-26.64-63h22.86l15.029,36.81l15.391-36.81H528.904z"/>
	</g>
</g>
<g id="Layer_2_copy">
	<g id="Layer_3_3_">
		<g id="Layer_7_2_">
			<circle fill="none" cx="275.875" cy="224.852" r="141.419"/>
		</g>
		<g>
			
				<path fill="none" stroke="#000000" stroke-width="10" stroke-linecap="round" stroke-linejoin="round" stroke-miterlimit="10" d="
				M143.331,225.135c0-72.802,59.02-131.822,131.821-131.822c72.803,0,131.82,59.02,131.82,131.822
				c0,72.803-59.02,131.82-131.82,131.82C202.35,356.955,143.331,297.938,143.331,225.135z M159.567,161.95
				c0,0-23.118,109.667,53.948,179.667c0,0,29.005-45.25,61.636-44.875s61.89,44.875,61.89,44.875s72.074-60.666,53.93-179.482
				 M342.783,111.967c-137,7.316-130.025,85.192-130.005,89.192c101.667-5.39,131.673,65.126,131.673,65.126
				c-67.669,19.666-86.509,34.205-86.509,34.205"/>
		</g>
	</g>
</g>
</svg>
